<svg width="192" height="50" viewBox="0 0 192 150" fill="none" xmlns="http://www.w3.org/2000/svg">
<path d="M133.498 105C117.197 105 102.63 97.5709 93.0023 85.9139C83.3704 97.5709 68.8032 105 52.5021 105C23.5078 105 0 81.4955 0 52.5C0 23.5046 23.5078 0 52.5021 0C68.3646 0 82.5827 7.03185 92.21 18.1514L70.172 55.5727C70.3442 54.5737 70.4407 53.5472 70.4407 52.5C70.4407 42.593 62.4096 34.5644 52.5021 34.5644C42.5947 34.5644 34.5658 42.593 34.5658 52.5C34.5658 62.407 42.597 70.4356 52.5021 70.4356C56.7692 70.4356 60.6825 68.9451 63.7622 66.4581C65.4663 65.0825 66.9109 63.3991 68.0178 61.4953L68.0247 61.4999L84.5922 33.3634V33.3588L86.5443 30.0495L92.9954 19.0953L93 19.0861C102.63 7.42915 117.197 0 133.498 0C162.494 0 186 23.5046 186 52.5C186 81.4955 162.494 105 133.498 105ZM133.498 34.5644C123.593 34.5644 115.562 42.593 115.562 52.5C115.562 62.407 123.593 70.4356 133.498 70.4356C143.403 70.4356 151.434 62.4048 151.434 52.5C151.434 42.5953 143.405 34.5644 133.498 34.5644Z" fill="white"/>
<path d="M140.361 35.9301C149.513 39.7208 153.859 50.2125 150.068 59.364C146.277 68.5155 135.785 72.8614 126.633 69.0707C117.481 65.28 113.135 54.7883 116.926 45.6367C120.717 36.4852 131.209 32.1394 140.361 35.9301Z" fill="#001217"/>
<path d="M93.0001 19.0862C92.7406 18.7716 92.4765 18.4592 92.2078 18.1515L93.0001 19.0862Z" fill="#00A276"/>
<path d="M67.0188 60.9167C68.461 58.4387 69.2924 55.5658 69.2924 52.5C69.2924 43.2429 61.7596 35.7127 52.5021 35.7127C43.2446 35.7127 35.7141 43.2429 35.7141 52.5C35.7141 61.7572 43.2469 69.2874 52.5021 69.2874C58.6937 69.2874 64.109 65.9161 67.0188 60.9167Z" fill="#00A276"/>
<path d="M68.0178 61.4953L63.7622 66.458C65.4663 65.0824 66.9108 63.3991 68.0178 61.4953Z" fill="#00A276"/>
<path d="M68.0178 61.4953L63.7622 66.458C65.4663 65.0824 66.9108 63.3991 68.0178 61.4953Z" fill="#00A276"/>
<path d="M69.2924 52.5C69.2924 43.2429 61.7596 35.7127 52.5021 35.7127C43.2446 35.7127 35.7141 43.2429 35.7141 52.5C35.7141 61.7572 43.2469 69.2874 52.5021 69.2874C58.6937 69.2874 64.109 65.9161 67.0188 60.9167C68.461 58.4387 69.2924 55.5658 69.2924 52.5Z" fill="#00A276"/>
<path d="M69.2924 52.5C69.2924 43.2429 61.7596 35.7127 52.5021 35.7127C43.2446 35.7127 35.7141 43.2429 35.7141 52.5C35.7141 61.7572 43.2469 69.2874 52.5021 69.2874C58.6937 69.2874 64.109 65.9161 67.0188 60.9167C68.461 58.4387 69.2924 55.5658 69.2924 52.5Z" fill="#004CDD"/>
<path d="M133.498 105C117.197 105 102.63 97.5709 93.0023 85.9139C83.3704 97.5709 68.8032 105 52.5021 105C23.5078 105 0 81.4955 0 52.5C0 23.5046 23.5078 0 52.5021 0C68.3646 0 82.5827 7.03185 92.21 18.1514L70.172 55.5727C70.3442 54.5737 70.4407 53.5472 70.4407 52.5C70.4407 42.593 62.4096 34.5644 52.5021 34.5644C42.5947 34.5644 34.5658 42.593 34.5658 52.5C34.5658 62.407 42.597 70.4356 52.5021 70.4356C56.7692 70.4356 60.6825 68.9451 63.7622 66.4581C65.4663 65.0825 66.9109 63.3991 68.0178 61.4953L68.0247 61.4999L84.5922 33.3634V33.3588L86.5443 30.0495L92.9954 19.0953L93 19.0861C102.63 7.42915 117.197 0 133.498 0C162.494 0 186 23.5046 186 52.5C186 81.4955 162.494 105 133.498 105ZM133.498 34.5644C123.593 34.5644 115.562 42.593 115.562 52.5C115.562 62.407 123.593 70.4356 133.498 70.4356C143.403 70.4356 151.434 62.4048 151.434 52.5C151.434 42.5953 143.405 34.5644 133.498 34.5644Z" fill="white"/>
<path d="M140.361 35.9301C149.513 39.7208 153.859 50.2125 150.068 59.364C146.277 68.5155 135.785 72.8614 126.633 69.0707C117.481 65.28 113.135 54.7883 116.926 45.6367C120.717 36.4852 131.209 32.1394 140.361 35.9301Z" fill="#001217"/>
<path d="M93.0001 19.0862C92.7406 18.7716 92.4765 18.4592 92.2078 18.1515L93.0001 19.0862Z" fill="#00A276"/>
<path d="M67.0188 60.9167C68.461 58.4387 69.2924 55.5658 69.2924 52.5C69.2924 43.2429 61.7596 35.7127 52.5021 35.7127C43.2446 35.7127 35.7141 43.2429 35.7141 52.5C35.7141 61.7572 43.2469 69.2874 52.5021 69.2874C58.6937 69.2874 64.109 65.9161 67.0188 60.9167Z" fill="#00A276"/>
<path d="M68.0178 61.4953L63.7622 66.458C65.4663 65.0824 66.9108 63.3991 68.0178 61.4953Z" fill="#00A276"/>
<path d="M68.0178 61.4953L63.7622 66.458C65.4663 65.0824 66.9108 63.3991 68.0178 61.4953Z" fill="#00A276"/>
<path d="M69.2924 52.5C69.2924 43.2429 61.7596 35.7127 52.5021 35.7127C43.2446 35.7127 35.7141 43.2429 35.7141 52.5C35.7141 61.7572 43.2469 69.2874 52.5021 69.2874C58.6937 69.2874 64.109 65.9161 67.0188 60.9167C68.461 58.4387 69.2924 55.5658 69.2924 52.5Z" fill="#00A276"/>
<path d="M69.2924 52.5C69.2924 43.2429 61.7596 35.7127 52.5021 35.7127C43.2446 35.7127 35.7141 43.2429 35.7141 52.5C35.7141 61.7572 43.2469 69.2874 52.5021 69.2874C58.6937 69.2874 64.109 65.9161 67.0188 60.9167C68.461 58.4387 69.2924 55.5658 69.2924 52.5Z" fill="#004CDD"/>
<path d="M133.498 105C117.197 105 102.63 97.5709 93.0023 85.9139C83.3704 97.5709 68.8032 105 52.5021 105C23.5078 105 0 81.4955 0 52.5C0 23.5046 23.5078 0 52.5021 0C68.3646 0 82.5827 7.03185 92.21 18.1514L70.172 55.5727C70.3442 54.5737 70.4407 53.5472 70.4407 52.5C70.4407 42.593 62.4096 34.5644 52.5021 34.5644C42.5947 34.5644 34.5658 42.593 34.5658 52.5C34.5658 62.407 42.597 70.4356 52.5021 70.4356C56.7692 70.4356 60.6825 68.9451 63.7622 66.4581C65.4663 65.0825 66.9109 63.3991 68.0178 61.4953L68.0247 61.4999L84.5922 33.3634V33.3588L86.5443 30.0495L92.9954 19.0953L93 19.0861C102.63 7.42915 117.197 0 133.498 0C162.494 0 186 23.5046 186 52.5C186 81.4955 162.494 105 133.498 105ZM133.498 34.5644C123.593 34.5644 115.562 42.593 115.562 52.5C115.562 62.407 123.593 70.4356 133.498 70.4356C143.403 70.4356 151.434 62.4048 151.434 52.5C151.434 42.5953 143.405 34.5644 133.498 34.5644Z" fill="white"/>
<path d="M140.361 35.9301C149.513 39.7208 153.859 50.2125 150.068 59.364C146.277 68.5155 135.785 72.8614 126.633 69.0707C117.481 65.28 113.135 54.7883 116.926 45.6367C120.717 36.4852 131.209 32.1394 140.361 35.9301Z" fill="#001217"/>
<path d="M93.0001 19.0862C92.7406 18.7716 92.4765 18.4592 92.2078 18.1515L93.0001 19.0862Z" fill="#00A276"/>
<path d="M67.0188 60.9167C68.461 58.4387 69.2924 55.5658 69.2924 52.5C69.2924 43.2429 61.7596 35.7127 52.5021 35.7127C43.2446 35.7127 35.7141 43.2429 35.7141 52.5C35.7141 61.7572 43.2469 69.2874 52.5021 69.2874C58.6937 69.2874 64.109 65.9161 67.0188 60.9167Z" fill="#00A276"/>
<path d="M68.0178 61.4953L63.7622 66.458C65.4663 65.0824 66.9108 63.3991 68.0178 61.4953Z" fill="#00A276"/>
<path d="M68.0178 61.4953L63.7622 66.458C65.4663 65.0824 66.9108 63.3991 68.0178 61.4953Z" fill="#00A276"/>
<path d="M69.2924 52.5C69.2924 43.2429 61.7596 35.7127 52.5021 35.7127C43.2446 35.7127 35.7141 43.2429 35.7141 52.5C35.7141 61.7572 43.2469 69.2874 52.5021 69.2874C58.6937 69.2874 64.109 65.9161 67.0188 60.9167C68.461 58.4387 69.2924 55.5658 69.2924 52.5Z" fill="#00A276"/>
<path d="M69.2924 52.5C69.2924 43.2429 61.7596 35.7127 52.5021 35.7127C43.2446 35.7127 35.7141 43.2429 35.7141 52.5C35.7141 61.7572 43.2469 69.2874 52.5021 69.2874C58.6937 69.2874 64.109 65.9161 67.0188 60.9167C68.461 58.4387 69.2924 55.5658 69.2924 52.5Z" fill="#004CDD"/>
</svg>
